# xmcd
#
# Track frame offsets:
#	150
#	23769
#	45567
#	65504
#	87249
#	111468
#	130653
#	154769
#	175705
#	206752
#	232996
#
# Disc length: 3842 seconds
#
# Revision: 1
# Processed by: cddbd v1.5.2PL0 Copyright (c) Steve Scherf et al.
# Submitted via: audiograbber 1.83.01
#
DISCID=8b0f000b
DTITLE=McPeake - These Days
DYEAR=1900
DGENRE=
TTITLE0=The Lament for Rory
TTITLE1=The Witches
TTITLE2=Don't
TTITLE3=She's With Me
TTITLE4=Cookin' in the Kitchen
TTITLE5=A New Day
TTITLE6=These Days
TTITLE7=The Gypsy Jig
TTITLE8=Head Held High
TTITLE9=The Flying Carpet
TTITLE10=Will Ye Go Lassie Go
EXTD=
EXTT0=
EXTT1=
EXTT2=
EXTT3=
EXTT4=
EXTT5=
EXTT6=
EXTT7=
EXTT8=
EXTT9=
EXTT10=
PLAYORDER=
